<?xml version="1.0" encoding="UTF-8" standalone="no"?><!DOCTYPE svg PUBLIC "-//W3C//DTD SVG 1.1//EN" "http://www.w3.org/Graphics/SVG/1.1/DTD/svg11.dtd"><svg width="100%" height="100%" viewBox="0 0 257 142" version="1.1" xmlns="http://www.w3.org/2000/svg" xmlns:xlink="http://www.w3.org/1999/xlink" xml:space="preserve" xmlns:serif="http://www.serif.com/" style="fill-rule:evenodd;clip-rule:evenodd;stroke-linecap:round;stroke-linejoin:round;stroke-miterlimit:1.5;"><path d="M0.5,6.751l9.325,-2.876l7.325,-0.564l11.465,0.361l8.284,0.549l8.766,-3.001l6.406,-0.72l4.355,0.092l3.977,0.638l5.398,2.095l3.514,2.11l4.649,6.239l2.043,5.882l6.138,5.216l4.376,6.167l3.967,6.739l9.711,5.288l7.823,2.979l10.916,6.138l3.204,0.998l3.97,1.845l7.725,4.997l11.708,7.359l5.503,4.451l7.808,3.043l16.169,9.152l19.257,10.72l18.694,8.726l15.215,7.631l16.273,6.629l6.195,3.539l5.82,3.067l-4.634,0.823l2.968,2.557l0.152,1.742l-1.987,1.465l-4.169,0.673l-2.726,-0.36l-25.627,-11.693l-21.655,-8.1l-34.75,-5.908l-5.203,0.061l-7.4,-1.07l-7.352,-1.598l-6.909,-0.706l-2.989,0.131l-2.071,2.554l-2.036,1.648l-1.948,1.116l-3.623,1.07l-2.825,0.688l-2.019,0.386l0.5,4.057l-6.487,11.013l-4.342,10.548l3.271,2.497l7.347,-0.151l4.883,-0.309l5.371,4.113l-4.902,-2.176l-2.478,-0.286l-3.238,2.946l-7.251,-0.641l-8.058,-0.412l-8.81,2.393l-9.33,-0.015l-3.973,-1.742l-3.161,1.4l-0.41,-2.099l1.276,-1.147l-7.501,-0.126l-0.71,0.973l2.537,-2.679l5.511,0.099l6.036,0.542l2.641,-1.58l1.357,0.475l7.736,0.296l12.131,-20.483l-4.794,-3.834l-1.882,-5.639l-3.852,-3.171l-4.527,-1.829l-0.888,4.491l-9.542,5.501l-6.859,2.044l-5.152,3.02l-7.895,5.901l7.228,2.744l8.28,0.386l2.907,1.085l1.792,3.097l0.492,1.276l-6.207,-3.008l-2.713,0.039l-2.007,1.709l-3.676,0.111l-9.897,-4.175l-1.51,-0.004l-3.969,1.143l-10.995,0.207l-3.449,-2.538l-4.938,-0.27l-1.399,-0.609l0,-1.256l-0.125,-0.881l-3.951,0.095l-0.333,0.605l-2.746,-0.042l2.29,-1.717l5.825,0.061l1.181,1.053l2.584,0.659l1.392,0.223l1.274,0.357l4.514,0.209l2.263,-0.812l-8.641,-3.356l-1.37,0.065l0.166,-1.033l4.41,-0.113l8.126,3.163l5.798,0.056l12.995,-7.331l9.01,-5.194l4.402,-7.888l0.396,-4.712l-11.923,-4.209l-8.93,-3.725l-10.438,-8.496l-6.861,-9.871l-0.263,-1.881l-7.178,-11.334l0.02,-28.406l-1.498,-2.6l-7.612,-4.362l-7.97,-3.239l-17.558,-0.466l-1.582,-1.022l2.513,-0.772l7.51,-1.086l6.58,-0.329l17.152,-0.637l-6.907,-2.979l-6.606,-1.232l-5.733,-0.534l-10.977,-0.038l-4.869,-1.144Z" style="stroke:#000;stroke-width:1px;"/></svg>