<?xml version="1.0" encoding="UTF-8" standalone="no"?><!DOCTYPE svg PUBLIC "-//W3C//DTD SVG 1.1//EN" "http://www.w3.org/Graphics/SVG/1.1/DTD/svg11.dtd"><svg width="100%" height="100%" viewBox="0 0 125 177" version="1.1" xmlns="http://www.w3.org/2000/svg" xmlns:xlink="http://www.w3.org/1999/xlink" xml:space="preserve" xmlns:serif="http://www.serif.com/" style="fill-rule:evenodd;clip-rule:evenodd;stroke-linecap:round;stroke-linejoin:round;stroke-miterlimit:1.5;"><g><path d="M3.297,90.718l11.266,-10.174l9.231,-5.116l10.034,-7.018l4.421,-7.192l2.955,-9.904l-1.233,-13.772l0.678,-3.861l7.686,-29.93l0.277,-3.501l1.133,0l2.148,1.331l2.914,4.428l3.158,6.601l6.339,12.146l3.987,-0.035l9.816,-20.888l1.591,-2.425l1.03,0.356l-0.075,22.903l3.624,1.497l-0.954,2.297l3.297,4.302l6.366,3.735l0.936,5.06l-0.81,4.892l-1.965,5.935l-3.347,5.46l-2.209,2.573l-2.039,1.979l2.502,25.192l0.161,5.952l-5.436,4.691l-5.2,8.609l0.17,6.947l0.851,18.513l1.662,6.755l0.309,4.424l4.102,15.547l8.917,-4.887l14.457,-5.699l5.327,-0.166l8.912,3.194l3.5,5.622l-2.481,4.316l-4.997,1.583l-8.714,1.291l-5.135,1.444l-7.812,3.247l-9.224,3.514l-10.472,1.964l-26.174,1.873l-27.457,-1.214l-13.988,-2.953l-3.667,-1.78l-1.703,-3.717l-0.324,-14.368l-0.581,-24.941l-0.807,-29.023l3.047,-7.609Z" style="stroke:#000;stroke-width:0.5px;"/><path d="M78.965,44.79l2.11,0.948l1.011,-1.52" style="fill:#fff;stroke:#fff;stroke-width:0.5px;"/><path d="M80.105,55.145l1.177,-5.87l0.925,4.305" style="fill:#fff;stroke:#fff;stroke-width:0.5px;"/><ellipse cx="63.996" cy="39.443" rx="9.073" ry="8.668" style="fill:#ffe200;stroke:#000;stroke-width:0.5px;"/><path d="M82.106,29.428c1.876,-0.418 4.057,2.191 4.868,5.823c0.81,3.632 -0.054,6.921 -1.93,7.34c-1.876,0.419 -4.057,-2.191 -4.868,-5.823c-0.81,-3.632 0.055,-6.921 1.93,-7.34Z" style="fill:#ffe200;stroke:#000;stroke-width:0.5px;"/><ellipse cx="68.36" cy="40.038" rx="1.51" ry="2.168" style="stroke:#000;stroke-width:0.5px;"/><ellipse cx="83.468" cy="36.737" rx="1.13" ry="1.842" style="stroke:#000;stroke-width:0.5px;"/></g></svg>