<?xml version="1.0" encoding="UTF-8" standalone="no"?><!DOCTYPE svg PUBLIC "-//W3C//DTD SVG 1.1//EN" "http://www.w3.org/Graphics/SVG/1.1/DTD/svg11.dtd"><svg width="100%" height="100%" viewBox="0 0 192 265" version="1.1" xmlns="http://www.w3.org/2000/svg" xmlns:xlink="http://www.w3.org/1999/xlink" xml:space="preserve" xmlns:serif="http://www.serif.com/" style="fill-rule:evenodd;clip-rule:evenodd;stroke-linecap:round;stroke-linejoin:round;stroke-miterlimit:1.5;"><g><path d="M178.569,250.104l-1.643,-86.017l0.213,11.179l7.28,-2.972l-4.188,-31.86l7.111,-32.667l1.748,-45.851l-8.906,-24.393l-12.935,-14.989l-13.592,-8.677l-20.643,-7.926l-26.449,-3.931l-26.937,5.73l-18.385,7.314l-18.784,24.367l-14.542,32.765l-10.316,30.271l-8.043,28.308l-3.487,25.473l-4.071,51.781l1.542,28.534l4.879,4.933l4.375,-1.862l2.612,5.153l1.163,3.322l4.143,2.975l3.74,-0.731l4.988,-1.878l9.028,-1.347l1.922,0.553l12.342,12.511l24.966,-7.328l12.184,9.948l25.711,-13.584l22.408,10.556l16.309,-14.233l12.737,6.423l2.705,-6.622l8.798,7.152l0.017,-2.38Z" style="fill:#fff;stroke:#000;stroke-width:4px;"/><path d="M38.525,132.079l-0.162,11.574l-3.087,3.358l-3.487,-0.368l-1.431,-4.034l-1.22,-13.796" style="fill:none;stroke:#000;stroke-width:4px;"/><ellipse cx="159.159" cy="98.699" rx="12.479" ry="14.104"/><ellipse cx="83.145" cy="82.306" rx="12.479" ry="14.104"/></g></svg>