<?xml version="1.0" encoding="UTF-8" standalone="no"?><!DOCTYPE svg PUBLIC "-//W3C//DTD SVG 1.1//EN" "http://www.w3.org/Graphics/SVG/1.1/DTD/svg11.dtd"><svg width="100%" height="100%" viewBox="0 0 376 376" version="1.1" xmlns="http://www.w3.org/2000/svg" xmlns:xlink="http://www.w3.org/1999/xlink" xml:space="preserve" xmlns:serif="http://www.serif.com/" style="fill-rule:evenodd;clip-rule:evenodd;stroke-linecap:round;stroke-linejoin:round;stroke-miterlimit:1.5;"><g><path d="M32.419,73.423l55.015,-48.038l40.933,-20.127l48.141,-4.758l58.455,8.095l47.225,10.549l37.792,30.267l30.362,46.164l15.414,36.868l9.376,42.048l-9.361,60.649l-20.952,51.991l-26.65,29.786l-30.707,23.207l-35.886,21.057l-57.939,13.486l-49.73,-6.517l-61.778,-26.38l-44.156,-38.402l-27.615,-51.832l-9.858,-55.024l3.534,-57.257l15.17,-40.223l13.215,-25.609Z" style="fill:#e5e5e5;stroke:#000;stroke-width:1px;"/><path d="M190.007,164.513l-5.679,-46.795l10.004,-16.931l28.655,-5.953l11.956,11.047l7.785,35.543l-7.462,33.803l-18.113,7.835l-27.146,-18.549Z" style="fill:none;stroke:#000;stroke-width:1px;"/><path d="M135.267,218.754l12.834,7.012l11.332,24.72l-3.15,37.653l-20.761,2.018l-19.996,-19.249l-7.617,-14.376l10.721,-23.267l16.637,-14.511Z" style="fill:none;stroke:#000;stroke-width:1px;"/><path d="M258.108,221.812l12.833,7.013l11.332,24.72l-3.15,37.653l-20.761,2.017l-19.995,-19.249l-7.617,-14.376l10.72,-23.267l16.638,-14.511Z" style="fill:none;stroke:#000;stroke-width:1px;"/><path d="M38.89,105.056l-15.868,17.581l1.704,12.791l13.279,-2.387l0.885,-27.985Z" style="fill:none;stroke:#000;stroke-width:1px;"/><path d="M100.586,70.969l3.312,-23.297l11.242,-6.795l4.464,7.6l-0.667,13.98l-13.623,17.469l-4.728,-8.957Z" style="fill:none;stroke:#000;stroke-width:1px;"/><path d="M290.111,81.382l3.49,-16.548l10.51,4.976l8.128,14.392l-2.72,17.991l-13.026,-1.38l-6.382,-19.431Z" style="fill:none;stroke:#000;stroke-width:1px;"/><path d="M50.311,219.124l3.49,-16.548l10.51,4.975l8.128,14.392l-2.72,17.991l-13.025,-1.38l-6.383,-19.43Z" style="fill:none;stroke:#000;stroke-width:1px;"/></g></svg>