<?xml version="1.0" encoding="UTF-8" standalone="no"?><!DOCTYPE svg PUBLIC "-//W3C//DTD SVG 1.1//EN" "http://www.w3.org/Graphics/SVG/1.1/DTD/svg11.dtd"><svg width="100%" height="100%" viewBox="0 0 141 138" version="1.1" xmlns="http://www.w3.org/2000/svg" xmlns:xlink="http://www.w3.org/1999/xlink" xml:space="preserve" xmlns:serif="http://www.serif.com/" style="fill-rule:evenodd;clip-rule:evenodd;stroke-linecap:round;stroke-linejoin:round;stroke-miterlimit:1.5;"><g><path d="M138.076,61.943c-1.351,-1.023 -9.419,-37.317 -46.001,-36.96c-5.016,0.049 -32.972,3.388 -37.882,4.088c-7.372,1.051 -14.627,1.391 -20.884,3.62c-9.392,3.345 -16.473,9.552 -22.06,16.31c-2.924,3.536 -4.902,9.2 -7.122,13.811c-1.95,4.049 -1.138,7.995 -2.24,8.334c-2.139,6.993 -1.23,13.713 1.098,20.306c1.334,7.23 3.3,14.324 6.424,21.165c3.179,6.01 8.016,11.297 13.987,16.09l23.351,6.905c10.922,-0.567 19.714,1.197 27.018,0.425c5.739,-0.606 10.693,-0.114 14.912,-0.992c4.228,-0.879 7.718,-3.128 11.401,-3.871c9.118,-1.84 17.716,-4.129 29.402,-19.984c8.572,-13.929 13.016,-29.658 8.596,-49.247Z" style="fill:#ff9800;"/><path d="M83.211,1.782l-0.778,-0.615c-0.259,0.345 -0.421,0.036 -0.744,-0.096c-0.42,-0.171 -1.017,-0.247 -1.479,-0.284c-1.157,-0.093 -2.402,0.67 -3.689,1.22c-3.166,1.351 -6.405,5.445 -8.729,7.757c-7.014,6.981 -10.33,17.698 -11.343,27.549c5.436,5.434 12.76,3.348 18.696,-1.453l-1.281,-10.71l0.635,-6.731l1.847,-5.386l5.431,-7.783l1.434,-3.468Z" style="fill:#1a8b1c;"/><g><path d="M47.633,135.408l-12.532,-3.462l-5.398,-0.891l-3.901,-1.502l-4.152,-2.351l-9.144,-8.978l-1.988,-3.592l-4.503,-10.249l-4.933,-20.081l-0.582,-5.445l1.683,-10.184l2.776,-8.827l7.672,-13.444l6.148,-5.177l3.453,-2.615l10.781,-6.052l7.71,-1.53l12.48,-1.877l4.064,-0.325l-0.191,3.323l-1.68,0.15l-4.539,0.227l-4.828,1.181l-5.403,1.514l-8.87,4.304l-4.065,2.402l-6.672,7.566l-3.23,4.405l-5.706,12.541l-1.43,4.24l-1.912,7.581l-0.439,4.221l0.956,6.725l2.358,8.331l5.711,14.84l7.701,10.206l5.333,5.67l4.74,3.693" style="fill:none;stroke:#000;stroke-width:1px;"/><path d="M57.076,32.149l-0.439,4.334l-2.84,0.17" style="fill:none;stroke:#000;stroke-width:1px;"/><path d="M56.637,36.483l0.631,2.487l5.358,1.095l11.868,-2.606l1.503,-1.769l-2.564,-10.68l1.538,-9.706l3.384,-6.169l2.852,-2.806l1.611,-2.791l-0.325,-2.791l-2.433,0.02l-3.209,1.128l-5.545,3.942l-4.084,4.312l-3.272,4.374l-2.721,5.149l-2.891,5.956l-0.923,3.213l-0.778,7.642Z" style="fill:none;stroke:#000;stroke-width:1px;"/><path d="M57.268,38.97l-0.578,1.675l-2.022,2.816l-2.897,4.649l-2.474,5.47l-1.236,4.65l0.665,1.113l3.181,2.307l4.958,5.138l2.532,3.687l1.904,3.74l0.291,2.047l-2.817,0.012l-7.47,0.933l-4.368,0.378l-7.923,1.724l-3.602,0.808l-0.64,0.151l1.564,-5.383l1.279,-4.252l1.115,-6.443l1.095,-5.022l0.609,-3.37l7.627,2.432" style="fill:none;stroke:#000;stroke-width:1px;"/><path d="M46.937,77.585l-0.179,4.32l0.237,4.053l0.097,3.091l0.556,6.091l1.24,3.491l1.232,3.562" style="fill:none;stroke:#000;stroke-width:1px;"/><path d="M73.639,99.109l-1.266,-6.497l4.297,-2.982l3.336,-2.545l-0.365,-2.735l-3.571,-4.941l-3.901,-3.394l-1.938,0.641l-3.251,4.401l-3.609,4.651l-0.999,2.498l10.001,4.406" style="fill:none;stroke:#000;stroke-width:1px;"/><path d="M72.169,76.015l-2.635,-12.728l-1.48,-7.707l-0.981,-7.9l0.713,-8.517" style="fill:none;stroke:#000;stroke-width:1px;"/><path d="M75.943,36.683l4.724,2.06l4.87,4.535l6.823,8.976l3.132,3.095l7.442,9.004l3.875,6.986l-3.01,0.003l-7.05,-0.27l-5.457,0.176l-6.39,0.894l-6.104,-0.352l13.562,-19.536" style="fill:none;stroke:#000;stroke-width:1px;"/><path d="M96.749,71.072l1.955,4.425l0.625,5.896l0.18,5.683l-0.07,5.152l-0.031,2.333" style="fill:none;stroke:#000;stroke-width:1px;"/><path d="M76.043,34.992l2.357,0.299l13.388,3.688l9.974,6.481l4.156,3.973l2.857,4.7l2.999,6.787l0.328,3.67l2.788,9.178l1.397,7.019l0.498,6.84l0.189,1.657" style="fill:none;stroke:#000;stroke-width:1px;"/><path d="M117.3,93.983l-0.646,3.968l-1.995,10.324l-1.231,5.461l-3.439,6.216l-5.339,6.43l-3.011,2.548l-1.396,1.967l-2.764,1.218l-1.924,-0.219" style="fill:none;stroke:#000;stroke-width:1px;"/><path d="M100.243,130.897l3.755,-0.183l4.626,-2.096l8.225,-7.641l9.349,-12.178l2.535,-5.795l1.654,-8.12l0.401,-5.663l-0.955,-14.852l-2.492,-8.386l-3.116,-11.436l-7.544,-13.52l-5.564,-2.813l-5.2,-3.75l-6.126,-0.839l-8.336,-1.282l-13.765,0.026l-2.55,0.045" style="fill:none;stroke:#000;stroke-width:1px;"/><path d="M74.017,26.296l5.892,-0.61l13.523,-0.782l11.709,1.139l9.13,3.554l10.439,7.472l5.721,7.877l6.157,12.251l2.544,11.529l0.904,13.821l-3.532,15.494l-8.239,14.869l-4.804,4.79l-6.367,6.234l-3.825,2.946l-4.86,1.884" style="fill:none;stroke:#000;stroke-width:1px;"/><path d="M56.332,37.098l2.1,2.501l2.946,0.559l3.868,-0.274l4.155,-0.842l3.981,-1.386l2.359,-1.803l-0.501,-2.082l-0.78,-3.882l-0.822,-2.713l-0.178,-4.35l0.685,-4.053l1.469,-5.293l3.844,-5.568l2.611,-2.63l1.006,-3.597l-1.471,-1.086l-1.077,-0.099l-3.625,1.156l-3.171,1.867l-2.183,1.991l-4.47,4.632l-3.518,4.589l-2.493,5.031l-1.603,3.19l-1.204,2.835l-1.25,5.05l-0.678,6.257Z" style="fill:none;stroke:#000;stroke-width:1px;"/><path d="M53.239,36.609l-2.317,0.958l-2.248,1.339l-4.657,3.21l-3.957,3.604l-5.277,5.133l-5.806,9.462l-3.694,11.884l-0.898,10.976l1.082,8.953l3.708,16.636l7.505,14.79l3.251,4.34l5.284,6.04l2.942,1.668l17.217,0.646l-5.286,-4.107l-2.038,-4.023l-1.311,-6.921l-11.851,-6.037l-8.196,-5.689l-5.262,-4.976l-3.534,-6.978l0.301,-1.703l22.069,7.049l0.307,5.505l6.517,1.42l3.001,-6.958l19.331,-4.406l3.496,6.447l7.339,0.074l4.541,-9.635l12.274,-1.983l11.286,-4.657l-1.25,4.843l-7.463,9.28l-8.478,7.677l-1.459,0.729l-11.946,4.579l-8.17,0.011l-0.578,-3.286l-9.14,1.504l-0.996,7.584l-12.139,-0.394" style="fill:none;stroke:#000;stroke-width:1px;"/><path d="M65.374,136.248l4.999,0.299l4.668,-0.435l4.022,-1.005l-3.414,-18.109" style="fill:none;stroke:#000;stroke-width:1px;"/><path d="M79.063,135.107l6.585,0.552l4.522,-0.589l3.712,-2.176l1.846,-1.06l1.574,-3.435l1.382,-4.292l0.439,-3.646l0.847,-5.078l0.089,-3.515l-1.922,0.039" style="fill:none;stroke:#000;stroke-width:1px;"/></g></g></svg>