<?xml version="1.0" encoding="UTF-8" standalone="no"?><!DOCTYPE svg PUBLIC "-//W3C//DTD SVG 1.1//EN" "http://www.w3.org/Graphics/SVG/1.1/DTD/svg11.dtd"><svg width="100%" height="100%" viewBox="0 0 168 224" version="1.1" xmlns="http://www.w3.org/2000/svg" xmlns:xlink="http://www.w3.org/1999/xlink" xml:space="preserve" xmlns:serif="http://www.serif.com/" style="fill-rule:evenodd;clip-rule:evenodd;stroke-linecap:round;stroke-linejoin:round;stroke-miterlimit:1.5;"><g><path d="M158.076,219.419l-156.322,3.438l26.887,-188.173c35.714,-34.902 78.162,-55.084 130.26,13.469c-17.475,87.797 0.511,99.519 -0.825,171.266Z" style="fill:#8f8f8f;"/><path d="M92.251,0.5l21.722,6.839l24.814,29.11l12.658,31.916l0.368,46.395l-5.481,7.389l5.462,8.643l2.462,88.921l10.581,-2.948l2.631,-9.265l-2.43,-74.889l-3.149,-9.298l1.962,-11.427l1.384,-24.093l-2.174,-30.798l-10.199,-25.127l-20.896,-23.605l-17.063,-5.485l-22.652,-2.278Z" style="fill:#8f8f8f;stroke:#000;stroke-width:1px;"/><path d="M63.517,1.042l-24.387,7.35l-26.22,25.598l6.381,14.498l-15.353,0.431l1.324,8.233l-3.711,7.773l-0.739,37.812l10.985,6.756l-11.297,2.962l1.053,110.579l73.526,-174.152l-5.762,1.184l-6.268,-7.055l-8.898,-14.021l-13.045,8.838l-11.445,-0.03l24.49,-8.808l10.48,-7.558l6.04,-7.767l-27.28,6.667l18.057,-7.12l13.879,0.681l17.636,-2.416l6.414,-8.733l-7.126,-2.244l-28.734,0.542Z" style="fill:#8f8f8f;stroke:#000;stroke-width:1px;"/><path d="M92.251,0.5l21.722,6.839l24.814,29.11l12.658,31.916l0.368,46.395l-5.481,7.389l5.462,8.643l2.462,88.921l10.581,-2.948l2.631,-9.265l-2.43,-74.889l-3.149,-9.298l1.962,-11.427l1.384,-24.093l-2.174,-30.798l-10.199,-25.127l-20.896,-23.605l-17.063,-5.485l-22.652,-2.278Z" style="fill:#8f8f8f;stroke:#000;stroke-width:1px;"/><g><path d="M102.711,89.424l-0.481,-25.444l8.002,0.003l3.828,1.899l1.813,2.369l0.156,3.875l-1.916,1.382l-2.04,1.114l-2.676,-0.026l-1.576,-0.381" style="fill:none;stroke:#000;stroke-width:1px;"/><path d="M102.23,63.98l-2.936,0.031l2.936,-0.031Z" style="fill:none;stroke:#000;stroke-width:1px;"/><path d="M102.711,89.424l2.471,-0.19l-2.471,0.19Z" style="fill:none;stroke:#000;stroke-width:1px;"/><path d="M74.728,65.825l4.833,-0.084l-2.658,0.046l0.649,25.278l3.549,0.196l-3.549,-0.196l-2.99,0.195" style="fill:none;stroke:#000;stroke-width:1px;"/><path d="M38.146,88.095l0.221,-25.06l9.408,0.381l1.45,1.032l1.93,1.599l0.204,1.721l0,2.177l-2.078,2.27l-3.224,1.005l3.378,2.565l1.485,1.182l0.785,1.049l0.922,1.966l0.506,3.455l0.064,3.201l1.072,0.942" style="fill:none;stroke:#000;stroke-width:1px;"/><path d="M38.367,63.035l-3.714,0.098" style="fill:none;stroke:#000;stroke-width:1px;"/><path d="M38.146,88.095l-2.346,-0.023" style="fill:none;stroke:#000;stroke-width:1px;"/></g><g><path d="M99.377,2.744l-6.414,8.733l-17.636,2.416l-13.879,-0.681l-18.057,7.12l27.28,-6.667l-6.04,7.767l-10.48,7.558l-24.49,8.808l11.445,0.03l13.045,-8.838l8.898,14.021l6.268,7.055l5.762,-1.184l-73.526,174.152l-1.053,-110.579l11.297,-2.962l-10.985,-6.756l0.739,-37.812l3.711,-7.773l-1.324,-8.233l15.353,-0.431l-6.381,-14.498l26.22,-25.598l24.387,-7.35l28.734,-0.542l7.126,2.244Z" style="fill:none;stroke:#000;stroke-width:1px;"/><path d="M114.903,2.778l17.063,5.485l20.896,23.605l10.199,25.127l2.174,30.798l-1.384,24.093l-1.962,11.427l3.149,9.298l2.43,74.889l-2.631,9.265l-10.581,2.948l-2.462,-88.921l-5.462,-8.643l5.481,-7.389l-0.368,-46.395l-12.658,-31.916l-24.814,-29.11l-14.596,-4.595l-7.126,-2.244l22.652,2.278Z" style="fill:none;stroke:#000;stroke-width:1px;"/><path d="M1.553,223.034l152.703,-3.321" style="fill:none;stroke:#000;stroke-width:1px;"/></g></g></svg>